General                          : ChattChitto RG - Movies [R2L]
==========
Complete name                    : Open Season 3 2010 720p BRRip H264 [ChattChitto RG]
Format                           : MPEG-4
Format profile                   : Base Media
Codec ID                         : isom
File size                        : 1.28 GiB
Duration                         : 1h 14mn
Overall bit rate                 : 2 455 Kbps
Encoded date                     : UTC 2011-02-06 13:24:38

Video
==========
ID                               : 1
Format                           : AVC
Format/Info                      : Advanced Video Codec
Format profile                   : High@L4.0
Format settings, CABAC           : Yes
Format settings, ReFrames        : 4 frames
Codec ID                         : avc1
Codec ID/Info                    : Advanced Video Coding
Duration                         : 1h 14mn
Bit rate mode                    : Variable
Bit rate                         : 2 100 Kbps
Maximum bit rate                 : 10.1 Mbps
Width                            : 1 280 pixels
Height                           : 720 pixels
Display aspect ratio             : 16:9
Frame rate mode                  : Constant
Frame rate                       : 23.976 fps
Resolution                       : 24 bits
Colorimetry                      : 4:2:0
Scan type                        : Progressive
Bits/(Pixel*Frame)               : 0.095
Stream size                      : 1.09 GiB (85%)
Writing library                  : x264 core 84 r1400M 20fa784
Encoded date                     : UTC 2011-02-06 03:42:18

Audio
==========
ID                               : 2
Format                           : AAC
Format/Info                      : Advanced Audio Codec
Format version                   : Version 4
Format profile                   : LC
Format settings, SBR             : No
Codec ID                         : 40
Duration                         : 1h 14mn
Bit rate mode                    : Variable
Bit rate                         : 352.8 Kbps
Maximum bit rate                 : 417 Kbps
Channel(s)                       : 6 channels
Channel positions                : Front: L C R, Rear: L R, LFE
Sampling rate                    : 48.0 KHz
Resolution                       : 16 bits
Stream size                      : 188 MiB (14%)
Encoded date                     : UTC 2011-02-06 13:25:15

Subtitles                        : English


----------------------------------------------------
IMDB Link: http://www.imdb.com/title/tt1646926/
----------------------------------------------------



Screen Shots:
==============    
http://bayimg.com/nADmDAadl 
http://bayimg.com/NadMeAaDL 
http://bayimg.com/nadmfaAdL 
http://bayimg.com/nAdMHAADL 
http://bayimg.com/NAdMiAADl



ScreenShots Comparison:
=========================  
http://screenshotcomparison.com/comparison/26159



Plot:
======
Boog thinks his friend Elliot distanced himself from him since he started a family. In search of real friends, Boog joins a touring Russian circus, where he meets an alluring female grizzly bear and a devious look-a-like grizzly bear whom Boog trade places with. But soon the circus was going back to Russia and Elliot have little time left to rescue him. Boog's woodland pals have to team up with the domestic animals to rescue their pal.



Release Info:
==============
original name .... : Open Season 3 2010 720p BRRip H264 [ChattChitto RG]
ripper.............: Rx
encoder............: Recalled2Life (R2L)
video codec........: H264/.MP4
video bitrate......: 2100 Kbps
audio codec........: AAC-LC
aspect ratio.......: 16:9
resolution.........: 1280 x 720
genre..............: Animation | Adventure | Comedy
runtime............: 1h 14mn
language...........: English
rating.............: PG
subtitles..........: English
sample.............: Yes [17.2 MB]
2ch Audio..........: 2ch Audio for XBox Viewers  
Compatibility .....: XBox | PS3 | WD Live



Source:
========
Open.Season.3.2010.1080p.BluRay.DTS.DXVA.x264-Rx  THANKS!



Notes:
=======
ChattChitto RG Encourages Burning this Film with ConvertXtoDVD and Playing with VLC media player.
XBox 360 | PS3 | WD Live - Compatible 
Enhanced for your viewing pleasure ;)